<?xml version="1.0" encoding="utf-8"?>
<!-- Generator: Adobe Illustrator 25.1.0, SVG Export Plug-In . SVG Version: 6.00 Build 0)  -->
<svg version="1.1"
	 id="svg3372" inkscape:version="0.92.2 (5c3e80d, 2017-08-06)" sodipodi:docname="Latin_letter_C with cedilla.svg" xmlns:cc="http://creativecommons.org/ns#" xmlns:dc="http://purl.org/dc/elements/1.1/" xmlns:inkscape="http://www.inkscape.org/namespaces/inkscape" xmlns:rdf="http://www.w3.org/1999/02/22-rdf-syntax-ns#" xmlns:sodipodi="http://sodipodi.sourceforge.net/DTD/sodipodi-0.dtd" xmlns:svg="http://www.w3.org/2000/svg"
	 xmlns="http://www.w3.org/2000/svg" xmlns:xlink="http://www.w3.org/1999/xlink" x="0px" y="0px" viewBox="0 0 450 300"
	 style="enable-background:new 0 0 450 300;" xml:space="preserve">
<style type="text/css">
	.st0{display:none;}
	.st1{display:inline;}
	.st2{font-family:'TimesNewRomanPSMT';}
	.st3{font-size:180px;}
</style>
<sodipodi:namedview  bordercolor="#666666" borderopacity="1.0" id="base" inkscape:current-layer="layer2" inkscape:cx="222.06681" inkscape:cy="151.52869" inkscape:document-units="px" inkscape:guide-bbox="true" inkscape:object-nodes="true" inkscape:object-paths="false" inkscape:pageopacity="0.0" inkscape:pageshadow="2" inkscape:snap-bbox="false" inkscape:snap-center="true" inkscape:snap-intersection-paths="true" inkscape:snap-object-midpoints="false" inkscape:snap-text-baseline="true" inkscape:snap-to-guides="true" inkscape:window-height="705" inkscape:window-maximized="1" inkscape:window-width="1366" inkscape:window-x="-8" inkscape:window-y="-8" inkscape:zoom="2.0000001" pagecolor="#ffffff" showgrid="false" showguides="true" units="px">
	
		<sodipodi:guide  id="guide3384" inkscape:color="rgb(255,0,0)" inkscape:label="" inkscape:locked="false" orientation="0,1" position="0,90.000003">
		</sodipodi:guide>
	
		<sodipodi:guide  id="guide3386" inkscape:color="rgb(255,0,0)" inkscape:label="" inkscape:locked="false" orientation="0,1" position="0,209.26801">
		</sodipodi:guide>
	
		<sodipodi:guide  id="guide3464" inkscape:color="rgb(0,0,255)" inkscape:label="" inkscape:locked="false" orientation="0,1" position="0,171.03501">
		</sodipodi:guide>
	
		<sodipodi:guide  id="guide3466" inkscape:color="rgb(0,0,255)" inkscape:label="" inkscape:locked="false" orientation="0,1" position="0,50.713002">
		</sodipodi:guide>
	
		<sodipodi:guide  id="guide3698" inkscape:color="rgb(0,0,255)" inkscape:label="" inkscape:locked="false" orientation="0,1" position="0,250.04901">
		</sodipodi:guide>
	<inkscape:grid  id="grid4557" type="xygrid"></inkscape:grid>
	
		<sodipodi:guide  id="guide4568" inkscape:color="rgb(0,0,255)" inkscape:label="" inkscape:locked="false" orientation="0,1" position="0,213.22301">
		</sodipodi:guide>
	
		<sodipodi:guide  id="guide4626" inkscape:color="rgb(0,0,255)" inkscape:label="" inkscape:locked="false" orientation="0,1" position="0,219.90201">
		</sodipodi:guide>
	
		<sodipodi:guide  id="guide4653" inkscape:color="rgb(0,0,255)" inkscape:label="" inkscape:locked="false" orientation="0,1" position="0,10.81">
		</sodipodi:guide>
</sodipodi:namedview>
<g id="layer2" inkscape:groupmode="layer" inkscape:label="Outline letter">
	<g id="g3428">
		<g id="g3414">
		</g>
	</g>
	<g id="text3393-4">
	</g>
	<g id="g93" transform="translate(47.500017)">
		<path id="path84" inkscape:connector-curvature="0" d="M163,88.1l2.7,40.5H163c-3.6-12.1-8.8-20.9-15.6-26.2
			c-6.7-5.3-14.8-8-24.3-8c-7.9,0-15.1,2-21.4,6.1c-6.4,4-11.4,10.4-15.1,19.2c-3.6,8.8-5.4,19.7-5.4,32.8c0,10.8,1.7,20.1,5.2,28
			s8.6,14,15.6,18.2c7,4.2,14.9,6.3,23.8,6.3c7.7,0,14.6-1.6,20.5-4.9c5.9-3.3,12.4-9.9,19.5-19.8l2.7,1.8
			c-6,10.6-12.9,18.4-20.9,23.3s-17.4,7.4-28.4,7.4c-19.7,0-35-7.3-45.9-22c-8.1-10.9-12.1-23.7-12.1-38.5c0-11.9,2.7-22.8,8-32.8
			s12.7-17.7,22-23.1c9.4-5.5,19.6-8.3,30.7-8.3c8.6,0,17.1,2.1,25.5,6.3c2.5,1.3,4.2,1.9,5.3,1.9c1.6,0,3-0.6,4.1-1.7
			c1.5-1.6,2.6-3.8,3.3-6.6H163z M115.4,214.5h3.5l-2.9,4.7c2.5,0.6,4.3,1.7,5.5,3.2c1.2,1.5,1.8,3.3,1.8,5.4c0,2.8-1.2,5.3-3.5,7.4
			c-2.4,2.2-5.4,3.2-9.1,3.2c-1.5,0-3.3-0.1-5.5-0.4v-2.5c1.1,0.2,2,0.2,2.8,0.2c2,0,3.7-0.7,5.1-2c1.4-1.3,2.1-2.8,2.1-4.5
			c0-1.2-0.5-2.2-1.4-3.1c-0.9-0.9-2-1.3-3.4-1.3c-0.4,0-0.9,0-1.5,0.1L115.4,214.5z"/>
		<path id="path86" inkscape:connector-curvature="0" d="M293.9,179.4c-2.2,10.6-6.4,18.8-12.7,24.5c-6.3,5.7-13.3,8.5-21,8.5
			c-9.1,0-17.1-3.8-23.9-11.5c-6.8-7.7-10.2-18-10.2-31.1c0-12.7,3.7-22.9,11.3-30.8c7.6-7.9,16.6-11.9,27.2-11.9
			c7.9,0,14.4,2.1,19.5,6.3c5.1,4.2,7.6,8.5,7.6,13c0,2.2-0.7,4-2.2,5.4c-1.4,1.3-3.4,2-6,2c-3.5,0-6.1-1.1-7.8-3.3
			c-1-1.2-1.7-3.6-2-7c-0.3-3.5-1.5-6.1-3.5-7.9c-2.1-1.8-4.9-2.6-8.5-2.6c-5.9,0-10.6,2.2-14.2,6.5c-4.7,5.7-7.1,13.3-7.1,22.8
			c0,9.6,2.3,18.1,7,25.5c4.7,7.3,11.1,11,19.2,11c5.7,0,10.9-2,15.5-5.9c3.2-2.7,6.4-7.6,9.4-14.7L293.9,179.4z M260.5,215.5h3.2
			l-2.7,4.2c2.3,0.6,3.9,1.5,5,2.9c1.1,1.4,1.7,3,1.7,4.9c0,2.6-1.1,4.8-3.2,6.8c-2.1,2-4.9,3-8.3,3c-1.3,0-3-0.1-5-0.4v-2.3
			c1,0.1,1.9,0.2,2.6,0.2c1.8,0,3.4-0.6,4.6-1.8c1.3-1.2,1.9-2.5,1.9-4.1c0-1.1-0.4-2-1.2-2.8c-0.8-0.8-1.8-1.2-3.1-1.2
			c-0.4,0-0.8,0-1.4,0.1L260.5,215.5z"/>
	</g>
</g>
<g id="layer3" inkscape:groupmode="layer" inkscape:label="Text letter" class="st0">
	<text transform="matrix(1 0 0 1 101.7334 210.0001)" class="st1 st2 st3">ร รง</text>
</g>
</svg>
