<?xml version="1.0" encoding="utf-8"?>
<!-- Generator: Adobe Illustrator 25.1.0, SVG Export Plug-In . SVG Version: 6.00 Build 0)  -->
<svg version="1.1"
	 id="svg2" xmlns:cc="http://web.resource.org/cc/" xmlns:dc="http://purl.org/dc/elements/1.1/" xmlns:inkscape="http://www.inkscape.org/namespaces/inkscape" xmlns:rdf="http://www.w3.org/1999/02/22-rdf-syntax-ns#" xmlns:sodipodi="http://sodipodi.sourceforge.net/DTD/sodipodi-0.dtd" xmlns:svg="http://www.w3.org/2000/svg"
	 xmlns="http://www.w3.org/2000/svg" xmlns:xlink="http://www.w3.org/1999/xlink" x="0px" y="0px" viewBox="0 0 420 300"
	 style="enable-background:new 0 0 420 300;" xml:space="preserve">
<sodipodi:namedview  bordercolor="#666666" borderopacity="1.0" gridtolerance="10.0" guidetolerance="10.0" id="base" inkscape:current-layer="svg2" inkscape:cx="210" inkscape:cy="168.75852" inkscape:pageopacity="0.0" inkscape:pageshadow="2" inkscape:window-height="721" inkscape:window-width="1024" inkscape:window-x="0" inkscape:window-y="20" inkscape:zoom="1.26" objecttolerance="10.0" pagecolor="#ffffff">
	</sodipodi:namedview>
<path id="text2238" sodipodi:nodetypes="cssssssscccccccssssscccccsssssssccccscsssssssscccccc" d="M163,49.8
	c-4.7,0-8.5,0.5-11.2,1.4c-2.7,0.9-6.7,2.8-12,5.8c-5.3,2.9-9.1,5.2-11.3,6.8c-2.2,1.6-4.2,3.9-6.1,6.7c-1.8,2.8-3.4,6.4-4.6,10.7
	c-1.2,4.3-1.8,9.2-1.8,14.7c0,12.1,3.5,22,10.6,29.7c5.8,6.3,13.6,10,23.3,11.2c0.6,0.4,3.8,0.8,4.9,0.8l36.9,1.6l0.4,0.9
	c-8,10.3-13.6,17.2-16.7,20.9l-17.6,21l1.5,4.1c3.3-0.5,5.9-0.7,7.6-0.7c15.8,0,23.7,8.4,23.8,25.1c0,9.4-2.4,17-7.3,22.8
	c-4.8,5.8-11.5,8.8-20.1,8.8c-7.9,0-14.1-1.8-18.6-5.4c-4.5-3.6-8.4-10-11.7-19.2l-1.3-0.6l-3.3,1.4l-0.3,1.1
	c2.3,8.4,4.3,17,5.7,25.7c1.1,1,4.1,2.1,9,3.4c4.9,1.3,9.1,1.9,12.8,1.9c10.3,0,19.6-2.6,27.8-7.8c8.2-5.2,14.5-11.7,19-19.7
	c4.5-7.9,6.8-15,6.8-21.2c0-8-2.6-14.4-7.9-19.3c-5.2-4.8-11.6-7.2-19.2-7.3c-5.2,0-9.6,0.6-13.2,1.9c15.9-19.2,29.5-36.2,41-51.1
	l-1-3.3c-9.8,0.4-18,0.7-25.1,0.8c0,0-8.2,0.1-10.7,0.1c-7.2,0-16.5-0.5-27.9-1.5c-2.1-1.5-3.9-3.3-5.3-5.3c-2.5-3.4-4.5-7.6-6-12.8
	c-1.5-5.1-2.3-10.4-2.3-15.8c0-6.4,1-11.9,2.9-16.5s4.7-7.9,8.5-9.9c3.7-2,8-3,12.8-3c4.8,0,9.3,1,13.6,2.9c4.2,1.9,6.6,3.7,7,5.4
	c0.4,1.7,0.7,5,1,9.9l0.8,0.8h3.6l0.8-0.7c0.6-8.1,1.4-15.5,2.5-22.2C179.5,51.5,172.1,49.8,163,49.8z"/>
<path id="text2238_1_" sodipodi:nodetypes="cssssssscccccccssssscccccsssssssccccscsssssssscccccc" d="M256.8,69.6
	c-3.8,0-6.8,0.4-9,1.1c-2.2,0.7-5.4,2.2-9.6,4.7c-4.3,2.3-7.3,4.2-9.1,5.5c-1.8,1.3-3.4,3.1-4.9,5.4c-1.4,2.2-2.7,5.1-3.7,8.6
	s-1.4,7.4-1.4,11.8c0,9.7,2.8,17.7,8.5,23.8c4.7,5.1,10.9,8,18.7,9c0.5,0.3,3.1,0.6,3.9,0.6l29.6,1.3l0.3,0.7
	c-6.4,8.3-10.9,13.8-13.4,16.8l-14.1,16.9l1.2,3.3c2.6-0.4,4.7-0.6,6.1-0.6c12.7,0,19,6.7,19.1,20.2c0,7.5-1.9,13.7-5.9,18.3
	c-3.9,4.7-9.2,7.1-16.1,7.1c-6.3,0-11.3-1.4-14.9-4.3c-3.6-2.9-6.7-8-9.4-15.4l-1-0.5l-2.6,1.1l-0.2,0.9c1.8,6.7,3.5,13.7,4.6,20.6
	c0.9,0.8,3.3,1.7,7.2,2.7c3.9,1,7.3,1.5,10.3,1.5c8.3,0,15.7-2.1,22.3-6.3c6.6-4.2,11.6-9.4,15.3-15.8c3.6-6.3,5.5-12,5.5-17
	c0-6.4-2.1-11.6-6.3-15.5c-4.2-3.9-9.3-5.8-15.4-5.9c-4.2,0-7.7,0.5-10.6,1.5c12.8-15.4,23.7-29.1,32.9-41l-0.8-2.6
	c-7.9,0.3-14.5,0.6-20.2,0.6c0,0-6.6,0.1-8.6,0.1c-5.8,0-13.2-0.4-22.4-1.2c-1.7-1.2-3.1-2.6-4.3-4.3c-2-2.7-3.6-6.1-4.8-10.3
	c-1.2-4.1-1.8-8.4-1.8-12.7c0-5.1,0.8-9.6,2.3-13.2s3.8-6.3,6.8-7.9c3-1.6,6.4-2.4,10.3-2.4s7.5,0.8,10.9,2.3c3.4,1.5,5.3,3,5.6,4.3
	c0.3,1.4,0.6,4,0.8,7.9L269,92h2.9l0.6-0.6c0.5-6.5,1.1-12.4,2-17.8C270.1,70.9,264.1,69.6,256.8,69.6z"/>
</svg>
